<?xml version="1.0" encoding="UTF-8" standalone="no"?>
<!DOCTYPE svg PUBLIC "-//W3C//DTD SVG 1.1//EN" "http://www.w3.org/Graphics/SVG/1.1/DTD/svg11.dtd">
<svg width="100%" height="100%" viewBox="0 0 500 160" version="1.1" xmlns="http://www.w3.org/2000/svg" xmlns:xlink="http://www.w3.org/1999/xlink" xml:space="preserve" xmlns:serif="http://www.serif.com/" style="fill-rule:evenodd;clip-rule:evenodd;stroke-linejoin:round;stroke-miterlimit:2;">
    <g id="Artboard3" transform="matrix(0.545368,0,0,1,0,0)">
        <rect x="0" y="0" width="916" height="160" style="fill:none;"/>
        <clipPath id="_clip1">
            <rect x="0" y="0" width="916" height="160"/>
        </clipPath>
        <g clip-path="url(#_clip1)">
            <g id="Artboard2" transform="matrix(1.74958,0,0,1,-763.6,0)">
                <rect x="0" y="0" width="960" height="160" style="fill:none;"/>
                <g transform="matrix(2.19899,0,0,2.09821,802.254,5.60446)">
                    <g id="Artboard1">
                        <g>
                            <g transform="matrix(0.2819,-0.9594,0.9594,0.2819,-8.7188,58.971)">
                                <ellipse cx="35" cy="35.3" rx="35.3" ry="35" style="fill:rgb(154,36,148);"/>
                            </g>
                            <g transform="matrix(0.928683,0.152217,-0.15573,0.936754,5.72824,27.6985)">
                                <g>
                                    <path d="M0.97,-7.08L3.01,-7.08C3.257,-7.08 3.515,-7.052 3.785,-6.995C4.055,-6.938 4.302,-6.84 4.525,-6.7C4.748,-6.56 4.932,-6.368 5.075,-6.125C5.218,-5.882 5.29,-5.577 5.29,-5.21C5.29,-4.89 5.232,-4.613 5.115,-4.38C4.998,-4.147 4.842,-3.955 4.645,-3.805C4.448,-3.655 4.222,-3.543 3.965,-3.47C3.708,-3.397 3.44,-3.36 3.16,-3.36L1.63,-3.36L1.63,0L0.97,0L0.97,-7.08ZM1.63,-3.96L3.13,-3.96C3.317,-3.96 3.5,-3.982 3.68,-4.025C3.86,-4.068 4.02,-4.138 4.16,-4.235C4.3,-4.332 4.413,-4.46 4.5,-4.62C4.587,-4.78 4.63,-4.977 4.63,-5.21C4.63,-5.437 4.585,-5.63 4.495,-5.79C4.405,-5.95 4.288,-6.082 4.145,-6.185C4.002,-6.288 3.837,-6.363 3.65,-6.41C3.463,-6.457 3.277,-6.48 3.09,-6.48L1.63,-6.48L1.63,-3.96Z" style="fill:white;fill-rule:nonzero;"/>
                                    <path d="M6.25,-3.54C6.25,-4.08 6.34,-4.577 6.52,-5.03C6.7,-5.483 6.95,-5.875 7.27,-6.205C7.59,-6.535 7.975,-6.793 8.425,-6.98C8.875,-7.167 9.37,-7.26 9.91,-7.26C10.45,-7.26 10.945,-7.167 11.395,-6.98C11.845,-6.793 12.23,-6.535 12.55,-6.205C12.87,-5.875 13.12,-5.483 13.3,-5.03C13.48,-4.577 13.57,-4.08 13.57,-3.54C13.57,-3 13.48,-2.502 13.3,-2.045C13.12,-1.588 12.87,-1.195 12.55,-0.865C12.23,-0.535 11.845,-0.278 11.395,-0.095C10.945,0.088 10.45,0.18 9.91,0.18C9.37,0.18 8.875,0.088 8.425,-0.095C7.975,-0.278 7.59,-0.535 7.27,-0.865C6.95,-1.195 6.7,-1.588 6.52,-2.045C6.34,-2.502 6.25,-3 6.25,-3.54ZM6.91,-3.54C6.91,-3.1 6.98,-2.69 7.12,-2.31C7.26,-1.93 7.46,-1.6 7.72,-1.32C7.98,-1.04 8.295,-0.82 8.665,-0.66C9.035,-0.5 9.45,-0.42 9.91,-0.42C10.37,-0.42 10.785,-0.5 11.155,-0.66C11.525,-0.82 11.84,-1.04 12.1,-1.32C12.36,-1.6 12.56,-1.93 12.7,-2.31C12.84,-2.69 12.91,-3.1 12.91,-3.54C12.91,-3.98 12.84,-4.39 12.7,-4.77C12.56,-5.15 12.36,-5.48 12.1,-5.76C11.84,-6.04 11.525,-6.26 11.155,-6.42C10.785,-6.58 10.37,-6.66 9.91,-6.66C9.45,-6.66 9.035,-6.58 8.665,-6.42C8.295,-6.26 7.98,-6.04 7.72,-5.76C7.46,-5.48 7.26,-5.15 7.12,-4.77C6.98,-4.39 6.91,-3.98 6.91,-3.54Z" style="fill:white;fill-rule:nonzero;"/>
                                    <path d="M14.13,-7.08L14.81,-7.08L16.57,-0.81L16.59,-0.81L18.38,-7.08L19.22,-7.08L21.01,-0.81L21.03,-0.81L22.79,-7.08L23.47,-7.08L21.41,0L20.6,0L18.81,-6.3L18.79,-6.3L17,0L16.19,0L14.13,-7.08Z" style="fill:white;fill-rule:nonzero;"/>
                                    <path d="M24.49,-7.08L28.82,-7.08L28.82,-6.48L25.15,-6.48L25.15,-3.96L28.59,-3.96L28.59,-3.36L25.15,-3.36L25.15,-0.6L28.98,-0.6L28.98,0L24.49,0L24.49,-7.08Z" style="fill:white;fill-rule:nonzero;"/>
                                    <path d="M31.08,-3.96L32.48,-3.96C32.827,-3.96 33.108,-4.003 33.325,-4.09C33.542,-4.177 33.71,-4.283 33.83,-4.41C33.95,-4.537 34.032,-4.673 34.075,-4.82C34.118,-4.967 34.14,-5.1 34.14,-5.22C34.14,-5.34 34.118,-5.473 34.075,-5.62C34.032,-5.767 33.95,-5.903 33.83,-6.03C33.71,-6.157 33.542,-6.263 33.325,-6.35C33.108,-6.437 32.827,-6.48 32.48,-6.48L31.08,-6.48L31.08,-3.96ZM30.42,-7.08L32.28,-7.08C32.373,-7.08 32.5,-7.077 32.66,-7.07C32.82,-7.063 32.993,-7.043 33.18,-7.01C33.367,-6.977 33.557,-6.923 33.75,-6.85C33.943,-6.777 34.117,-6.67 34.27,-6.53C34.423,-6.39 34.55,-6.213 34.65,-6C34.75,-5.787 34.8,-5.527 34.8,-5.22C34.8,-4.88 34.742,-4.6 34.625,-4.38C34.508,-4.16 34.362,-3.982 34.185,-3.845C34.008,-3.708 33.813,-3.607 33.6,-3.54C33.387,-3.473 33.183,-3.427 32.99,-3.4L35.05,0L34.3,0L32.31,-3.36L31.08,-3.36L31.08,0L30.42,0L30.42,-7.08Z" style="fill:white;fill-rule:nonzero;"/>
                                    <path d="M36.35,-7.08L40.68,-7.08L40.68,-6.48L37.01,-6.48L37.01,-3.96L40.45,-3.96L40.45,-3.36L37.01,-3.36L37.01,-0.6L40.84,-0.6L40.84,0L36.35,0L36.35,-7.08Z" style="fill:white;fill-rule:nonzero;"/>
                                    <path d="M42.19,-7.08L44.38,-7.08C44.993,-7.08 45.513,-7.005 45.94,-6.855C46.367,-6.705 46.722,-6.513 47.005,-6.28C47.288,-6.047 47.512,-5.788 47.675,-5.505C47.838,-5.222 47.958,-4.95 48.035,-4.69C48.112,-4.43 48.16,-4.195 48.18,-3.985C48.2,-3.775 48.21,-3.627 48.21,-3.54C48.21,-3.453 48.2,-3.305 48.18,-3.095C48.16,-2.885 48.112,-2.65 48.035,-2.39C47.958,-2.13 47.838,-1.858 47.675,-1.575C47.512,-1.292 47.288,-1.033 47.005,-0.8C46.722,-0.567 46.367,-0.375 45.94,-0.225C45.513,-0.075 44.993,0 44.38,0L42.19,0L42.19,-7.08ZM42.85,-0.6L44.21,-0.6C44.677,-0.6 45.113,-0.658 45.52,-0.775C45.927,-0.892 46.28,-1.07 46.58,-1.31C46.88,-1.55 47.117,-1.855 47.29,-2.225C47.463,-2.595 47.55,-3.033 47.55,-3.54C47.55,-4.047 47.463,-4.485 47.29,-4.855C47.117,-5.225 46.88,-5.53 46.58,-5.77C46.28,-6.01 45.927,-6.188 45.52,-6.305C45.113,-6.422 44.677,-6.48 44.21,-6.48L42.85,-6.48L42.85,-0.6Z" style="fill:white;fill-rule:nonzero;"/>
                                    <path d="M52.29,-7.08L54.33,-7.08C54.597,-7.08 54.867,-7.058 55.14,-7.015C55.413,-6.972 55.658,-6.882 55.875,-6.745C56.092,-6.608 56.268,-6.418 56.405,-6.175C56.542,-5.932 56.61,-5.61 56.61,-5.21C56.61,-4.85 56.503,-4.537 56.29,-4.27C56.077,-4.003 55.76,-3.827 55.34,-3.74L55.34,-3.72C55.573,-3.7 55.787,-3.645 55.98,-3.555C56.173,-3.465 56.34,-3.345 56.48,-3.195C56.62,-3.045 56.728,-2.867 56.805,-2.66C56.882,-2.453 56.92,-2.227 56.92,-1.98C56.92,-1.573 56.842,-1.242 56.685,-0.985C56.528,-0.728 56.332,-0.527 56.095,-0.38C55.858,-0.233 55.602,-0.133 55.325,-0.08C55.048,-0.027 54.79,0 54.55,0L52.29,0L52.29,-7.08ZM52.95,-4.02L54.32,-4.02C54.66,-4.02 54.937,-4.062 55.15,-4.145C55.363,-4.228 55.53,-4.33 55.65,-4.45C55.77,-4.57 55.85,-4.698 55.89,-4.835C55.93,-4.972 55.95,-5.097 55.95,-5.21C55.95,-5.457 55.908,-5.662 55.825,-5.825C55.742,-5.988 55.63,-6.118 55.49,-6.215C55.35,-6.312 55.187,-6.38 55,-6.42C54.813,-6.46 54.617,-6.48 54.41,-6.48L52.95,-6.48L52.95,-4.02ZM52.95,-0.6L54.46,-0.6C54.847,-0.6 55.158,-0.647 55.395,-0.74C55.632,-0.833 55.813,-0.95 55.94,-1.09C56.067,-1.23 56.152,-1.378 56.195,-1.535C56.238,-1.692 56.26,-1.833 56.26,-1.96C56.26,-2.22 56.21,-2.443 56.11,-2.63C56.01,-2.817 55.88,-2.968 55.72,-3.085C55.56,-3.202 55.378,-3.287 55.175,-3.34C54.972,-3.393 54.767,-3.42 54.56,-3.42L52.95,-3.42L52.95,-0.6Z" style="fill:white;fill-rule:nonzero;"/>
                                    <path d="M60.16,-3.05L57.56,-7.08L58.35,-7.08L60.49,-3.72L62.68,-7.08L63.42,-7.08L60.82,-3.05L60.82,0L60.16,0L60.16,-3.05Z" style="fill:white;fill-rule:nonzero;"/>
                                </g>
                                <g transform="matrix(1,0,0,1,-1.9,13)">
                                    <path d="M0.936,-9.204L4.004,-9.204L6.123,-3.198L6.149,-3.198L8.281,-9.204L11.336,-9.204L11.336,0L9.308,0L9.308,-7.059L9.282,-7.059L6.864,0L5.317,0L2.99,-7.059L2.964,-7.059L2.964,0L0.936,0L0.936,-9.204Z" style="fill:white;fill-rule:nonzero;"/>
                                    <rect x="13.182" y="-9.204" width="2.028" height="9.204" style="fill:white;"/>
                                    <path d="M23.075,-6.812C22.876,-7.055 22.631,-7.241 22.341,-7.371C22.05,-7.501 21.714,-7.566 21.333,-7.566C20.952,-7.566 20.598,-7.492 20.273,-7.345C19.949,-7.198 19.667,-6.992 19.428,-6.727C19.19,-6.463 19.004,-6.149 18.87,-5.785C18.735,-5.421 18.668,-5.027 18.668,-4.602C18.668,-4.169 18.735,-3.772 18.87,-3.413C19.004,-3.053 19.188,-2.741 19.422,-2.477C19.656,-2.212 19.931,-2.006 20.248,-1.859C20.564,-1.712 20.904,-1.638 21.268,-1.638C21.684,-1.638 22.052,-1.725 22.373,-1.898C22.694,-2.071 22.958,-2.314 23.166,-2.626L24.856,-1.365C24.466,-0.819 23.972,-0.416 23.374,-0.156C22.776,0.104 22.161,0.234 21.528,0.234C20.809,0.234 20.146,0.121 19.539,-0.104C18.932,-0.329 18.408,-0.652 17.966,-1.073C17.524,-1.493 17.179,-2.002 16.932,-2.6C16.685,-3.198 16.562,-3.865 16.562,-4.602C16.562,-5.339 16.685,-6.006 16.932,-6.604C17.179,-7.202 17.524,-7.711 17.966,-8.132C18.408,-8.552 18.932,-8.875 19.539,-9.1C20.146,-9.325 20.809,-9.438 21.528,-9.438C21.788,-9.438 22.059,-9.414 22.341,-9.367C22.622,-9.319 22.899,-9.243 23.173,-9.139C23.445,-9.035 23.708,-8.896 23.959,-8.723C24.21,-8.55 24.436,-8.337 24.635,-8.086L23.075,-6.812Z" style="fill:white;fill-rule:nonzero;"/>
                                    <path d="M25.961,-9.204L29.523,-9.204C29.991,-9.204 30.435,-9.159 30.856,-9.068C31.276,-8.977 31.644,-8.825 31.96,-8.612C32.277,-8.4 32.528,-8.114 32.715,-7.755C32.901,-7.395 32.994,-6.946 32.994,-6.409C32.994,-5.759 32.825,-5.207 32.487,-4.752C32.149,-4.297 31.655,-4.008 31.005,-3.887L33.345,0L30.914,0L28.99,-3.679L27.989,-3.679L27.989,0L25.961,0L25.961,-9.204ZM27.989,-5.395L29.185,-5.395C29.367,-5.395 29.56,-5.402 29.764,-5.414C29.967,-5.428 30.151,-5.466 30.316,-5.531C30.481,-5.597 30.617,-5.698 30.725,-5.837C30.834,-5.976 30.888,-6.171 30.888,-6.422C30.888,-6.656 30.84,-6.842 30.745,-6.981C30.65,-7.12 30.528,-7.226 30.381,-7.3C30.234,-7.373 30.065,-7.423 29.874,-7.449C29.683,-7.475 29.497,-7.488 29.315,-7.488L27.989,-7.488L27.989,-5.395Z" style="fill:white;fill-rule:nonzero;"/>
                                    <path d="M33.891,-4.602C33.891,-5.339 34.015,-6.006 34.262,-6.604C34.509,-7.202 34.853,-7.711 35.295,-8.132C35.737,-8.552 36.261,-8.875 36.868,-9.1C37.475,-9.325 38.138,-9.438 38.857,-9.438C39.576,-9.438 40.239,-9.325 40.846,-9.1C41.453,-8.875 41.977,-8.552 42.419,-8.132C42.861,-7.711 43.206,-7.202 43.453,-6.604C43.7,-6.006 43.823,-5.339 43.823,-4.602C43.823,-3.865 43.7,-3.198 43.453,-2.6C43.206,-2.002 42.861,-1.493 42.419,-1.073C41.977,-0.652 41.453,-0.329 40.846,-0.104C40.239,0.121 39.576,0.234 38.857,0.234C38.138,0.234 37.475,0.121 36.868,-0.104C36.261,-0.329 35.737,-0.652 35.295,-1.073C34.853,-1.493 34.509,-2.002 34.262,-2.6C34.015,-3.198 33.891,-3.865 33.891,-4.602ZM35.997,-4.602C35.997,-4.169 36.064,-3.772 36.198,-3.413C36.333,-3.053 36.526,-2.741 36.777,-2.477C37.028,-2.212 37.329,-2.006 37.68,-1.859C38.032,-1.712 38.424,-1.638 38.857,-1.638C39.29,-1.638 39.683,-1.712 40.033,-1.859C40.385,-2.006 40.686,-2.212 40.937,-2.477C41.188,-2.741 41.381,-3.053 41.516,-3.413C41.65,-3.772 41.717,-4.169 41.717,-4.602C41.717,-5.027 41.65,-5.421 41.516,-5.785C41.381,-6.149 41.188,-6.463 40.937,-6.727C40.686,-6.992 40.385,-7.198 40.033,-7.345C39.683,-7.492 39.29,-7.566 38.857,-7.566C38.424,-7.566 38.032,-7.492 37.68,-7.345C37.329,-7.198 37.028,-6.992 36.777,-6.727C36.526,-6.463 36.333,-6.149 36.198,-5.785C36.064,-5.421 35.997,-5.027 35.997,-4.602Z" style="fill:white;fill-rule:nonzero;"/>
                                    <path d="M44.993,-1.118C44.993,-1.283 45.023,-1.439 45.084,-1.586C45.145,-1.733 45.229,-1.861 45.338,-1.97C45.446,-2.078 45.574,-2.162 45.721,-2.223C45.868,-2.284 46.024,-2.314 46.189,-2.314C46.354,-2.314 46.51,-2.284 46.657,-2.223C46.804,-2.162 46.932,-2.078 47.041,-1.97C47.149,-1.861 47.233,-1.733 47.294,-1.586C47.355,-1.439 47.385,-1.283 47.385,-1.118C47.385,-0.953 47.355,-0.797 47.294,-0.65C47.233,-0.503 47.149,-0.375 47.041,-0.267C46.932,-0.158 46.804,-0.074 46.657,-0.013C46.51,0.048 46.354,0.078 46.189,0.078C46.024,0.078 45.868,0.048 45.721,-0.013C45.574,-0.074 45.446,-0.158 45.338,-0.267C45.229,-0.375 45.145,-0.503 45.084,-0.65C45.023,-0.797 44.993,-0.953 44.993,-1.118ZM44.993,-5.278C44.993,-5.443 45.023,-5.599 45.084,-5.746C45.145,-5.893 45.229,-6.021 45.338,-6.13C45.446,-6.238 45.574,-6.322 45.721,-6.383C45.868,-6.444 46.024,-6.474 46.189,-6.474C46.354,-6.474 46.51,-6.444 46.657,-6.383C46.804,-6.322 46.932,-6.238 47.041,-6.13C47.149,-6.021 47.233,-5.893 47.294,-5.746C47.355,-5.599 47.385,-5.443 47.385,-5.278C47.385,-5.113 47.355,-4.957 47.294,-4.81C47.233,-4.663 47.149,-4.535 47.041,-4.427C46.932,-4.318 46.804,-4.234 46.657,-4.173C46.51,-4.112 46.354,-4.082 46.189,-4.082C46.024,-4.082 45.868,-4.112 45.721,-4.173C45.574,-4.234 45.446,-4.318 45.338,-4.427C45.229,-4.535 45.145,-4.663 45.084,-4.81C45.023,-4.957 44.993,-5.113 44.993,-5.278Z" style="fill:white;fill-rule:nonzero;"/>
                                    <path d="M49.049,-9.204L52.481,-9.204C52.88,-9.204 53.28,-9.176 53.684,-9.12C54.087,-9.063 54.448,-8.951 54.769,-8.782C55.09,-8.612 55.35,-8.376 55.549,-8.073C55.748,-7.77 55.848,-7.367 55.848,-6.864C55.848,-6.344 55.703,-5.913 55.413,-5.571C55.122,-5.228 54.739,-4.983 54.262,-4.836L54.262,-4.81C54.565,-4.767 54.841,-4.682 55.088,-4.557C55.335,-4.431 55.547,-4.271 55.725,-4.076C55.902,-3.88 56.039,-3.653 56.134,-3.393C56.229,-3.133 56.277,-2.856 56.277,-2.561C56.277,-2.076 56.173,-1.671 55.965,-1.346C55.757,-1.02 55.488,-0.758 55.159,-0.559C54.83,-0.36 54.459,-0.217 54.048,-0.13C53.636,-0.043 53.226,0 52.819,0L49.049,0L49.049,-9.204ZM51.077,-5.525L52.546,-5.525C52.702,-5.525 52.856,-5.542 53.008,-5.577C53.159,-5.612 53.296,-5.668 53.417,-5.746C53.538,-5.824 53.636,-5.928 53.71,-6.058C53.783,-6.188 53.82,-6.344 53.82,-6.526C53.82,-6.717 53.779,-6.875 53.697,-7.001C53.614,-7.126 53.508,-7.224 53.378,-7.293C53.248,-7.362 53.101,-7.412 52.936,-7.443C52.771,-7.473 52.611,-7.488 52.455,-7.488L51.077,-7.488L51.077,-5.525ZM51.077,-1.716L52.897,-1.716C53.053,-1.716 53.211,-1.733 53.372,-1.768C53.532,-1.803 53.677,-1.863 53.807,-1.95C53.937,-2.037 54.043,-2.149 54.126,-2.288C54.208,-2.427 54.249,-2.596 54.249,-2.795C54.249,-3.012 54.195,-3.187 54.087,-3.322C53.978,-3.456 53.842,-3.558 53.677,-3.627C53.512,-3.696 53.335,-3.744 53.144,-3.77C52.953,-3.796 52.776,-3.809 52.611,-3.809L51.077,-3.809L51.077,-1.716Z" style="fill:white;fill-rule:nonzero;"/>
                                    <rect x="57.447" y="-9.204" width="2.028" height="9.204" style="fill:white;"/>
                                    <path d="M63.102,-7.41L60.476,-7.41L60.476,-9.204L67.756,-9.204L67.756,-7.41L65.13,-7.41L65.13,0L63.102,0L63.102,-7.41Z" style="fill:white;fill-rule:nonzero;"/>
                                </g>
                            </g>
                        </g>
                    </g>
                </g>
            </g>
            <g id="Layer-3" serif:id="Layer 3" transform="matrix(1.78021,0,0,0.970867,4.68861,1.00003)">
                <g transform="matrix(1,0,0,1,123.181,46.0841)">
                    <path d="M0,53.146C2.291,53.146 4.151,55.005 4.151,57.296C4.151,59.587 2.291,61.448 0,61.448C-2.291,61.448 -4.151,59.587 -4.151,57.296C-4.151,55.005 -2.291,53.146 0,53.146M44.829,0.505C47.12,0.505 48.98,2.366 48.98,4.656C48.98,6.947 47.12,8.807 44.829,8.807C42.538,8.807 40.678,6.947 40.678,4.656C40.678,2.366 42.538,0.505 44.829,0.505M-113.12,-31.871C-115.41,-31.871 -117.271,-33.731 -117.271,-36.022C-117.271,-38.313 -115.41,-40.173 -113.12,-40.173C-110.828,-40.173 -108.969,-38.313 -108.969,-36.022C-108.969,-33.731 -110.828,-31.871 -113.12,-31.871M56.638,93.584L30.999,93.584L5.052,66.828L10.235,66.828L10.235,31.058L39.139,66.828L55.025,66.828L55.025,-5.942L49.429,-5.942L15.532,-38.718L15.516,-38.703L15.516,-38.718L-103.435,-38.718C-104.616,-42.962 -108.501,-46.083 -113.12,-46.083C-118.673,-46.083 -123.181,-41.575 -123.181,-36.022C-123.181,-30.469 -118.673,-25.96 -113.12,-25.96C-108.647,-25.96 -104.858,-28.886 -103.55,-32.924L13.189,-32.924L41.094,-5.942L35.039,-5.942L35.039,31.058L5.828,-5.942L-9.75,-5.942L-9.75,66.828L-3.018,66.828L28.392,99.218L28.482,99.128L28.482,99.229L56.638,99.229" style="fill:white;fill-rule:nonzero;"/>
                </g>
                <g transform="matrix(1,0,0,1,29.7958,40.1418)">
                    <path d="M0,72.77L19.986,72.77L19.986,45.712L44.379,45.712L44.379,29.518L19.986,29.518L19.986,17.424L49.914,17.424L49.914,0L0,0L0,72.77Z" style="fill:white;fill-rule:nonzero;"/>
                </g>
                <g transform="matrix(1,0,0,1,0,-9.028)">
                    <rect x="86.065" y="49.17" width="19.986" height="72.77" style="fill:white;"/>
                </g>
                <g transform="matrix(1,0,0,1,191.274,51.5189)">
                    <path d="M0,50.221C3.04,53.775 6.679,56.627 10.915,58.78C15.151,60.932 19.798,62.008 24.854,62.008C27.724,62.008 30.662,61.632 33.669,60.88C36.675,60.129 39.511,59.035 42.176,57.601C44.841,56.166 47.215,54.389 49.299,52.271C51.383,50.153 52.938,47.761 53.962,45.097L37.666,35.36C37.119,36.999 36.385,38.383 35.462,39.511C34.54,40.638 33.515,41.561 32.388,42.279C31.26,42.995 30.081,43.508 28.852,43.816C27.622,44.123 26.426,44.277 25.265,44.277C22.941,44.277 20.874,43.747 19.063,42.688C17.253,41.629 15.715,40.211 14.451,38.435C13.188,36.658 12.23,34.608 11.581,32.285C10.933,29.962 10.607,27.536 10.607,25.008C10.607,22.753 10.881,20.481 11.428,18.192C11.975,15.903 12.846,13.853 14.041,12.043C15.237,10.232 16.74,8.763 18.551,7.636C20.361,6.508 22.531,5.944 25.06,5.944C26.152,5.944 27.348,6.081 28.646,6.354C29.944,6.627 31.175,7.106 32.336,7.789C33.498,8.472 34.574,9.395 35.564,10.556C36.556,11.718 37.358,13.187 37.974,14.964L53.245,4.099C50.922,-0.684 47.334,-4.527 42.483,-7.431C37.632,-10.335 31.96,-11.787 25.469,-11.787C19.935,-11.787 14.998,-10.728 10.659,-8.61C6.32,-6.492 2.63,-3.724 -0.41,-0.308C-3.451,3.109 -5.757,6.969 -7.329,11.274C-8.9,15.578 -9.687,19.951 -9.687,24.393C-9.687,29.039 -8.832,33.617 -7.124,38.127C-5.415,42.637 -3.041,46.668 0,50.221" style="fill:white;fill-rule:nonzero;"/>
                </g>
                <g transform="matrix(1,0,0,1,268.605,68.6351)">
                    <path d="M0,15.784L24.393,15.784L24.393,44.277L44.38,44.277L44.38,-28.493L24.393,-28.493L24.393,-1.64L0,-1.64L0,-28.493L-19.986,-28.493L-19.986,44.277L0,44.277L0,15.784Z" style="fill:white;fill-rule:nonzero;"/>
                </g>
                <g transform="matrix(1,0,0,1,239.051,134.313)">
                    <path d="M0,6.368C0.513,6.251 0.96,6.054 1.345,5.776C1.729,5.499 2.032,5.147 2.257,4.72C2.48,4.294 2.593,3.77 2.593,3.152C2.593,2.256 2.305,1.477 1.729,0.816C1.152,0.155 0.245,-0.176 -0.991,-0.176L-5.823,-0.176L-5.823,6.544L-1.632,6.544C-1.056,6.544 -0.512,6.485 0,6.368" style="fill:white;fill-rule:nonzero;"/>
                </g>
                <g transform="matrix(1,0,0,1,265.003,149.147)">
                    <path d="M0,-12.738C-0.746,-13.549 -1.643,-14.194 -2.688,-14.674C-3.733,-15.154 -4.906,-15.393 -6.208,-15.393C-7.509,-15.393 -8.683,-15.154 -9.728,-14.674C-10.773,-14.194 -11.669,-13.549 -12.416,-12.738C-13.162,-11.926 -13.738,-10.972 -14.144,-9.874C-14.549,-8.775 -14.752,-7.607 -14.752,-6.37C-14.752,-5.133 -14.549,-3.965 -14.144,-2.866C-13.738,-1.766 -13.162,-0.812 -12.416,-0.002C-11.669,0.809 -10.773,1.454 -9.728,1.934C-8.683,2.414 -7.509,2.655 -6.208,2.655C-4.906,2.655 -3.733,2.414 -2.688,1.934C-1.643,1.454 -0.746,0.809 0,-0.002C0.747,-0.812 1.323,-1.766 1.729,-2.866C2.134,-3.965 2.337,-5.133 2.337,-6.37C2.337,-7.607 2.134,-8.775 1.729,-9.874C1.323,-10.972 0.747,-11.926 0,-12.738" style="fill:white;fill-rule:nonzero;"/>
                </g>
                <g transform="matrix(1,0,0,1,241.323,150.408)">
                    <path d="M0,-5.855C-0.875,-6.527 -2.059,-6.863 -3.552,-6.863L-8.096,-6.863L-8.096,1.008L-3.584,1.008C-3.115,1.008 -2.598,0.96 -2.032,0.865C-1.467,0.769 -0.939,0.577 -0.448,0.289C0.042,0 0.458,-0.388 0.8,-0.879C1.141,-1.37 1.312,-2.02 1.312,-2.832C1.312,-4.175 0.874,-5.183 0,-5.855" style="fill:white;fill-rule:nonzero;"/>
                </g>
                <g transform="matrix(1,0,0,1,199.372,135.913)">
                    <path d="M0,3.744C0.277,3.265 0.416,2.64 0.416,1.872C0.416,1.104 0.277,0.48 0,-0C-0.277,-0.48 -0.646,-0.848 -1.104,-1.104C-1.562,-1.36 -2.085,-1.535 -2.672,-1.632C-3.259,-1.728 -3.851,-1.776 -4.448,-1.776L-8.479,-1.776L-8.479,5.52L-4.448,5.52C-3.851,5.52 -3.259,5.473 -2.672,5.376C-2.085,5.28 -1.562,5.104 -1.104,4.848C-0.646,4.593 -0.277,4.224 0,3.744" style="fill:white;fill-rule:nonzero;"/>
                </g>
                <g transform="matrix(1,0,0,1,222.059,149.147)">
                    <path d="M0,-12.738C-0.746,-13.549 -1.643,-14.194 -2.688,-14.674C-3.733,-15.154 -4.906,-15.393 -6.208,-15.393C-7.509,-15.393 -8.683,-15.154 -9.728,-14.674C-10.773,-14.194 -11.669,-13.549 -12.416,-12.738C-13.162,-11.926 -13.738,-10.972 -14.144,-9.874C-14.549,-8.775 -14.752,-7.607 -14.752,-6.37C-14.752,-5.133 -14.549,-3.965 -14.144,-2.866C-13.738,-1.766 -13.162,-0.812 -12.416,-0.002C-11.669,0.809 -10.773,1.454 -9.728,1.934C-8.683,2.414 -7.509,2.655 -6.208,2.655C-4.906,2.655 -3.733,2.414 -2.688,1.934C-1.643,1.454 -0.746,0.809 0,-0.002C0.747,-0.812 1.323,-1.766 1.729,-2.866C2.134,-3.965 2.337,-5.133 2.337,-6.37C2.337,-7.607 2.134,-8.775 1.729,-9.874C1.323,-10.972 0.747,-11.926 0,-12.738" style="fill:white;fill-rule:nonzero;"/>
                </g>
                <g transform="matrix(1,0,0,1,329.818,146.506)">
                    <path d="M0,-7.456C-0.118,-8.128 -0.283,-8.779 -0.496,-9.408C-0.71,-10.037 -0.992,-10.602 -1.345,-11.104C-1.696,-11.605 -2.128,-12.006 -2.641,-12.305C-3.152,-12.602 -3.761,-12.752 -4.464,-12.752C-5.168,-12.752 -5.776,-12.602 -6.288,-12.305C-6.801,-12.006 -7.232,-11.605 -7.584,-11.104C-7.937,-10.602 -8.22,-10.037 -8.433,-9.408C-8.646,-8.779 -8.812,-8.128 -8.929,-7.456C-9.046,-6.784 -9.12,-6.123 -9.152,-5.473C-9.185,-4.821 -9.2,-4.24 -9.2,-3.728C-9.2,-2.981 -9.152,-2.097 -9.057,-1.072C-8.96,-0.049 -8.752,0.939 -8.433,1.888C-8.112,2.837 -7.638,3.643 -7.009,4.304C-6.379,4.965 -5.531,5.296 -4.464,5.296C-3.397,5.296 -2.55,4.965 -1.92,4.304C-1.291,3.643 -0.816,2.837 -0.496,1.888C-0.177,0.939 0.031,-0.049 0.128,-1.072C0.224,-2.097 0.271,-2.981 0.271,-3.728C0.271,-4.24 0.256,-4.821 0.224,-5.473C0.191,-6.123 0.116,-6.784 0,-7.456" style="fill:white;fill-rule:nonzero;"/>
                </g>
                <g transform="matrix(1,0,0,1,332.842,137.617)">
                    <path d="M0,9C-0.213,10.366 -0.607,11.636 -1.184,12.809C-1.76,13.981 -2.555,14.952 -3.567,15.721C-4.581,16.488 -5.888,16.872 -7.487,16.872C-9.088,16.872 -10.395,16.488 -11.408,15.721C-12.421,14.952 -13.216,13.981 -13.792,12.809C-14.368,11.636 -14.763,10.366 -14.976,9C-15.189,7.636 -15.296,6.355 -15.296,5.16C-15.296,4.328 -15.253,3.464 -15.168,2.568C-15.083,1.672 -14.928,0.792 -14.704,-0.071C-14.479,-0.936 -14.182,-1.763 -13.808,-2.552C-13.435,-3.341 -12.955,-4.028 -12.368,-4.615C-11.781,-5.202 -11.088,-5.672 -10.288,-6.023C-9.487,-6.376 -8.555,-6.552 -7.487,-6.552C-6.421,-6.552 -5.487,-6.376 -4.687,-6.023C-3.888,-5.672 -3.194,-5.202 -2.607,-4.615C-2.021,-4.028 -1.541,-3.341 -1.168,-2.552C-0.795,-1.763 -0.496,-0.936 -0.271,-0.071C-0.048,0.792 0.106,1.672 0.192,2.568C0.277,3.464 0.32,4.328 0.32,5.16C0.32,6.355 0.213,7.636 0,9M-17.424,16.057C-17.84,16.473 -18.335,16.681 -18.911,16.681C-19.487,16.681 -19.983,16.473 -20.399,16.057C-20.815,15.641 -21.023,15.145 -21.023,14.568C-21.023,13.992 -20.815,13.496 -20.399,13.08C-19.983,12.664 -19.487,12.456 -18.911,12.456C-18.335,12.456 -17.84,12.664 -17.424,13.08C-17.008,13.496 -16.8,13.992 -16.8,14.568C-16.8,15.145 -17.008,15.641 -17.424,16.057M-22.911,13.8L-22.911,16.488L-37.76,16.488L-37.76,13.225L-28.672,4.2C-28.352,3.901 -28.042,3.576 -27.743,3.225C-27.445,2.872 -27.179,2.504 -26.943,2.12C-26.709,1.736 -26.522,1.331 -26.384,0.904C-26.245,0.478 -26.176,0.029 -26.176,-0.439C-26.176,-0.994 -26.277,-1.496 -26.479,-1.943C-26.683,-2.392 -26.959,-2.771 -27.312,-3.08C-27.663,-3.389 -28.079,-3.629 -28.56,-3.8C-29.039,-3.971 -29.547,-4.056 -30.079,-4.056C-31.188,-4.056 -32.106,-3.746 -32.831,-3.128C-33.557,-2.509 -34.016,-1.655 -34.207,-0.567L-37.535,-0.855C-37.387,-1.858 -37.093,-2.728 -36.655,-3.464C-36.219,-4.2 -35.675,-4.813 -35.023,-5.304C-34.373,-5.794 -33.626,-6.156 -32.783,-6.392C-31.941,-6.626 -31.029,-6.744 -30.048,-6.744C-29.066,-6.744 -28.144,-6.61 -27.279,-6.344C-26.415,-6.077 -25.658,-5.683 -25.008,-5.16C-24.357,-4.637 -23.845,-3.986 -23.472,-3.208C-23.099,-2.429 -22.911,-1.517 -22.911,-0.472C-22.911,0.275 -23.023,0.974 -23.247,1.624C-23.472,2.275 -23.765,2.889 -24.128,3.464C-24.49,4.04 -24.906,4.584 -25.375,5.097C-25.845,5.608 -26.335,6.109 -26.848,6.601L-34.304,13.8L-22.911,13.8ZM-44.64,-3.288L-51.936,-3.288L-51.936,16.488L-55.007,16.488L-55.007,-3.288L-62.304,-3.288L-62.304,-6.168L-44.64,-6.168L-44.64,-3.288ZM-63.118,9.864C-63.705,11.315 -64.516,12.574 -65.551,13.641C-66.585,14.707 -67.828,15.544 -69.278,16.152C-70.729,16.761 -72.318,17.064 -74.047,17.064C-75.774,17.064 -77.364,16.761 -78.814,16.152C-80.266,15.544 -81.508,14.707 -82.542,13.641C-83.577,12.574 -84.388,11.315 -84.975,9.864C-85.562,8.414 -85.854,6.846 -85.854,5.16C-85.854,3.476 -85.562,1.907 -84.975,0.456C-84.388,-0.994 -83.577,-2.253 -82.542,-3.319C-81.508,-4.386 -80.266,-5.224 -78.814,-5.832C-77.364,-6.439 -75.774,-6.744 -74.047,-6.744C-72.318,-6.744 -70.729,-6.439 -69.278,-5.832C-67.828,-5.224 -66.585,-4.386 -65.551,-3.319C-64.516,-2.253 -63.705,-0.994 -63.118,0.456C-62.532,1.907 -62.238,3.476 -62.238,5.16C-62.238,6.846 -62.532,8.414 -63.118,9.864M-87.566,12.889C-87.982,13.667 -88.554,14.323 -89.278,14.856C-90.004,15.39 -90.847,15.795 -91.807,16.072C-92.767,16.35 -93.802,16.488 -94.91,16.488L-102.687,16.488L-102.687,-6.168L-94.814,-6.168C-93.834,-6.168 -92.922,-6.05 -92.079,-5.815C-91.236,-5.581 -90.511,-5.234 -89.902,-4.775C-89.295,-4.316 -88.814,-3.73 -88.463,-3.016C-88.11,-2.301 -87.935,-1.464 -87.935,-0.504C-87.935,0.798 -88.298,1.859 -89.022,2.681C-89.748,3.502 -90.687,4.104 -91.839,4.488L-91.839,4.553C-91.156,4.596 -90.517,4.771 -89.919,5.08C-89.321,5.39 -88.804,5.795 -88.366,6.296C-87.93,6.798 -87.583,7.379 -87.326,8.04C-87.07,8.702 -86.942,9.416 -86.942,10.185C-86.942,11.208 -87.15,12.109 -87.566,12.889M-106.062,9.864C-106.648,11.315 -107.459,12.574 -108.494,13.641C-109.528,14.707 -110.771,15.544 -112.222,16.152C-113.673,16.761 -115.262,17.064 -116.99,17.064C-118.718,17.064 -120.308,16.761 -121.758,16.152C-123.209,15.544 -124.451,14.707 -125.485,13.641C-126.521,12.574 -127.331,11.315 -127.918,9.864C-128.505,8.414 -128.798,6.846 -128.798,5.16C-128.798,3.476 -128.505,1.907 -127.918,0.456C-127.331,-0.994 -126.521,-2.253 -125.485,-3.319C-124.451,-4.386 -123.209,-5.224 -121.758,-5.832C-120.308,-6.439 -118.718,-6.744 -116.99,-6.744C-115.262,-6.744 -113.673,-6.439 -112.222,-5.832C-110.771,-5.224 -109.528,-4.386 -108.494,-3.319C-107.459,-2.253 -106.648,-0.994 -106.062,0.456C-105.476,1.907 -105.182,3.476 -105.182,5.16C-105.182,6.846 -105.476,8.414 -106.062,9.864M-132.766,16.488L-138.525,6.504L-141.949,6.504L-141.949,16.488L-145.021,16.488L-145.021,-6.168L-137.054,-6.168C-135.604,-6.168 -134.408,-5.971 -133.47,-5.576C-132.531,-5.181 -131.79,-4.68 -131.245,-4.071C-130.701,-3.464 -130.323,-2.78 -130.109,-2.023C-129.896,-1.267 -129.79,-0.536 -129.79,0.168C-129.79,0.894 -129.918,1.592 -130.174,2.265C-130.43,2.937 -130.798,3.544 -131.277,4.088C-131.758,4.632 -132.345,5.091 -133.037,5.464C-133.731,5.838 -134.505,6.067 -135.357,6.152L-128.926,16.488L-132.766,16.488ZM-154.557,24.465L8.862,24.465L8.862,-15.465L-154.557,-15.465L-154.557,24.465Z" style="fill:white;fill-rule:nonzero;"/>
                </g>
                <g transform="matrix(1,0,0,1,322.202,107.552)">
                    <path d="M0,-1.184L0.752,-1.184C0.849,-1.184 0.955,-1.19 1.072,-1.201C1.189,-1.21 1.299,-1.238 1.4,-1.28C1.501,-1.323 1.587,-1.389 1.656,-1.48C1.726,-1.571 1.76,-1.696 1.76,-1.856C1.76,-2.016 1.726,-2.141 1.656,-2.232C1.587,-2.323 1.501,-2.389 1.4,-2.432C1.299,-2.475 1.189,-2.501 1.072,-2.512C0.955,-2.523 0.849,-2.528 0.752,-2.528L0,-2.528L0,-1.184ZM-1.52,-3.776L0.48,-3.776C0.843,-3.776 1.192,-3.749 1.528,-3.696C1.864,-3.643 2.163,-3.549 2.424,-3.416C2.686,-3.283 2.896,-3.096 3.057,-2.856C3.216,-2.617 3.296,-2.309 3.296,-1.936C3.296,-1.659 3.253,-1.406 3.168,-1.176C3.083,-0.947 2.974,-0.752 2.84,-0.592C2.707,-0.432 2.558,-0.301 2.393,-0.201C2.227,-0.099 2.059,-0.038 1.888,-0.016L3.488,2.463L1.809,2.463L0.384,0.064L0.017,0.064L0.017,2.463L-1.52,2.463L-1.52,-3.776ZM-3.647,-0.592C-3.647,0.047 -3.533,0.648 -3.304,1.208C-3.074,1.768 -2.763,2.255 -2.368,2.671C-1.974,3.087 -1.507,3.416 -0.968,3.656C-0.43,3.896 0.149,4.016 0.769,4.016C1.387,4.016 1.966,3.896 2.504,3.656C3.043,3.416 3.51,3.087 3.904,2.671C4.299,2.255 4.61,1.768 4.84,1.208C5.069,0.648 5.185,0.047 5.185,-0.592C5.185,-1.232 5.069,-1.832 4.84,-2.392C4.61,-2.953 4.299,-3.44 3.904,-3.856C3.51,-4.272 3.043,-4.6 2.504,-4.84C1.966,-5.08 1.387,-5.201 0.769,-5.201C0.149,-5.201 -0.43,-5.08 -0.968,-4.84C-1.507,-4.6 -1.974,-4.272 -2.368,-3.856C-2.763,-3.44 -3.074,-2.953 -3.304,-2.392C-3.533,-1.832 -3.647,-1.232 -3.647,-0.592M-5.184,-0.592C-5.184,-1.413 -5.026,-2.184 -4.712,-2.904C-4.397,-3.624 -3.971,-4.253 -3.432,-4.792C-2.894,-5.33 -2.264,-5.757 -1.544,-6.072C-0.824,-6.387 -0.054,-6.544 0.769,-6.544C1.59,-6.544 2.36,-6.387 3.08,-6.072C3.8,-5.757 4.43,-5.33 4.968,-4.792C5.507,-4.253 5.934,-3.624 6.248,-2.904C6.562,-2.184 6.72,-1.413 6.72,-0.592C6.72,0.229 6.562,1 6.248,1.72C5.934,2.44 5.507,3.069 4.968,3.608C4.43,4.147 3.8,4.574 3.08,4.888C2.36,5.203 1.59,5.36 0.769,5.36C-0.054,5.36 -0.824,5.203 -1.544,4.888C-2.264,4.574 -2.894,4.147 -3.432,3.608C-3.971,3.069 -4.397,2.44 -4.712,1.72C-5.026,1 -5.184,0.229 -5.184,-0.592" style="fill:white;fill-rule:nonzero;"/>
                </g>
            </g>
        </g>
    </g>
</svg>
